<svg version="1.1" xmlns="http://www.w3.org/2000/svg" xmlns:xlink="http://www.w3.org/1999/xlink" width="100" height="100" viewBox="0,0,203.25001,75.40922"><g transform="translate(-138.37499,-142.17039)"><g data-paper-data="{&quot;isPaintingLayer&quot;:true}" fill-rule="nonzero" stroke-linejoin="miter" stroke-miterlimit="10" stroke-dasharray="" stroke-dashoffset="0" style="mix-blend-mode: normal"><path d="M212.00005,213.51197c0,0 0.88334,-0.11874 -0.68504,-2.45204c-1.32595,-1.97265 -2.46841,-5.44065 -2.33473,-6.28415c0.37642,-2.37525 0.18655,-10.05836 0.18655,-10.05836l11.80641,3.65397c0,0 -2.5606,4.3135 -3.22704,6.91652c-0.34546,1.34933 1.37583,4.65725 1.26373,6.5542c-0.10624,1.79767 -2.05475,2.22316 -2.05475,2.22316z" data-paper-data="{&quot;index&quot;:null}" fill="#c76436" stroke="none" stroke-width="0" stroke-linecap="butt"/><path d="M212.2489,214.08065l1.29419,-5.0549l9.76445,4.51981l-0.80887,3.15931z" data-paper-data="{&quot;index&quot;:null}" fill="#c76436" stroke="none" stroke-width="0" stroke-linecap="butt"/><path d="M222.49865,216.70487l0.80887,-3.15931l3.17394,1.82253l-0.56621,2.21152z" data-paper-data="{&quot;index&quot;:null}" fill="#e6e6e6" stroke="none" stroke-width="0" stroke-linecap="butt"/><path d="M284.3065,215.24796c0,0 0.72932,-0.51231 -1.73759,-1.8608c-2.08561,-1.14007 -4.6972,-3.69189 -4.96712,-4.50214c-0.76009,-2.28163 -4.11397,-7.48866 -4.11397,-7.48866l11.86734,-3.46629c0,0 -0.32275,3.22209 0.71945,6.27824c0.82122,2.4082 3.18788,5.35486 3.4787,6.60765c0.38216,1.64626 -0.59391,2.64045 -0.59391,2.64045z" data-paper-data="{&quot;index&quot;:null}" fill="#c76436" stroke="none" stroke-width="0" stroke-linecap="butt"/><path d="M284.78927,215.63808l-1.1799,-5.08279l10.7488,-0.48643l0.73744,3.17674z" data-paper-data="{&quot;index&quot;:null}" fill="#c76436" stroke="none" stroke-width="0" stroke-linecap="butt"/><path d="M295.09562,213.24559l-0.73744,-3.17674l3.65667,0.15553l0.51621,2.22372z" data-paper-data="{&quot;index&quot;:null}" fill="#e6e6e6" stroke="none" stroke-width="0" stroke-linecap="butt"/><path d="M196.37499,184.92039c0,0 -17.37104,0.5 -25.43478,0.5c-7.0038,0 -16.1087,0.5 -16.1087,0.5c0,0 -9.02648,-3.02498 -10.70047,-5.54594c-1.93907,-2.92015 -5.75605,-11.95406 -5.75605,-11.95406c0,0 5.80545,5.2756 8.66264,6.85475c4.3202,2.38775 6.35853,3.46951 10.63509,3.88501c3.96884,0.3856 9.50782,-1.70081 15.92907,-1.95621c10.47838,-0.41678 22.77321,-3.28355 22.77321,-3.28355v11z" data-paper-data="{&quot;index&quot;:null}" fill="#be5524" stroke="none" stroke-width="0" stroke-linecap="butt"/><path d="M186.12501,177.24309c0,-18.81783 26.97485,-34.0727 60.25,-34.0727c33.27515,0 60.25,21.35744 60.25,40.17527c0,13.66319 -15.22122,18.87537 -36.29713,19.31261c-7.95119,0.16496 -16.73567,-2.53053 -25.85051,-2.53053c-10.92723,0 -21.44481,2.10416 -30.00616,0.84867c-17.5093,-2.5677 -28.3462,-11.09508 -28.3462,-23.73332z" data-paper-data="{&quot;index&quot;:null}" fill="#c76436" stroke="none" stroke-width="0" stroke-linecap="butt"/><path d="M242.87501,199.42039c-7.32548,0 -24,1 -24,1c0,0 -2,-28.35715 -2,-38c0,-5.35715 2,-15 2,-15c0,0 16.75046,-4.5 24.5,-4.5c6.26633,0 18.5,2.5 18.5,2.5c0,0 -2,11.67279 -2,21c0,8.994 2,34 2,34c0,0 -12.00767,-1 -19,-1z" data-paper-data="{&quot;index&quot;:null}" fill="#be5524" stroke="none" stroke-width="0" stroke-linecap="butt"/><path d="M256.875,199.92039l-1.5,-56" data-paper-data="{&quot;index&quot;:null}" fill="none" stroke="#9e4b24" stroke-width="0.5" stroke-linecap="round"/><path d="M251.875,199.42039l-1,-56" data-paper-data="{&quot;index&quot;:null}" fill="none" stroke="#9e4b24" stroke-width="0.5" stroke-linecap="round"/><path d="M247.375,198.92039l-1.5,-55.5" data-paper-data="{&quot;index&quot;:null}" fill="none" stroke="#9e4b24" stroke-width="0.5" stroke-linecap="round"/><path d="M240.375,142.42039l2,56" data-paper-data="{&quot;index&quot;:null}" fill="none" stroke="#9e4b24" stroke-width="0.5" stroke-linecap="round"/><path d="M222.375,145.92039l1.5,54.5" data-paper-data="{&quot;index&quot;:null}" fill="none" stroke="#9e4b24" stroke-width="0.5" stroke-linecap="round"/><path d="M226.875,144.92039l1.5,54.5" data-paper-data="{&quot;index&quot;:null}" fill="none" stroke="#9e4b24" stroke-width="0.5" stroke-linecap="round"/><path d="M231.875,144.42039l2,54" data-paper-data="{&quot;index&quot;:null}" fill="none" stroke="#9e4b24" stroke-width="0.5" stroke-linecap="round"/><path d="M236.375,143.42039l2,56" data-paper-data="{&quot;index&quot;:null}" fill="none" stroke="#9e4b24" stroke-width="0.5" stroke-linecap="round"/><path d="M218.87501,192.42039v-4h41.5v4z" data-paper-data="{&quot;index&quot;:null}" fill="none" stroke="#9e4b24" stroke-width="0.5" stroke-linecap="butt"/><path d="M218.37501,188.92039v-4h41.5v4z" data-paper-data="{&quot;index&quot;:null}" fill="none" stroke="#9e4b24" stroke-width="0.5" stroke-linecap="butt"/><path d="M218.87501,185.42039v-4h41.5v4z" data-paper-data="{&quot;index&quot;:null}" fill="none" stroke="#9e4b24" stroke-width="0.5" stroke-linecap="butt"/><path d="M217.87501,181.92039v-4h41.5v4z" data-paper-data="{&quot;index&quot;:null}" fill="none" stroke="#9e4b24" stroke-width="0.5" stroke-linecap="butt"/><path d="M217.37501,178.42039v-4h41.5v4z" data-paper-data="{&quot;index&quot;:null}" fill="none" stroke="#9e4b24" stroke-width="0.5" stroke-linecap="butt"/><path d="M217.87501,174.92039v-4h41.5v4z" data-paper-data="{&quot;index&quot;:null}" fill="none" stroke="#9e4b24" stroke-width="0.5" stroke-linecap="butt"/><path d="M217.87501,171.92039v-4h41.5v4z" data-paper-data="{&quot;index&quot;:null}" fill="none" stroke="#9e4b24" stroke-width="0.5" stroke-linecap="butt"/><path d="M217.37501,168.42039v-4h41.5v4z" data-paper-data="{&quot;index&quot;:null}" fill="none" stroke="#9e4b24" stroke-width="0.5" stroke-linecap="butt"/><path d="M217.87501,164.92039v-4h41.5v4z" data-paper-data="{&quot;index&quot;:null}" fill="none" stroke="#9e4b24" stroke-width="0.5" stroke-linecap="butt"/><path d="M218.37501,160.42039v-4h41.5v4z" data-paper-data="{&quot;index&quot;:null}" fill="none" stroke="#9e4b24" stroke-width="0.5" stroke-linecap="butt"/><path d="M217.87501,156.92039v-4h41.5v4z" data-paper-data="{&quot;index&quot;:null}" fill="none" stroke="#9e4b24" stroke-width="0.5" stroke-linecap="butt"/><path d="M218.37501,153.42039v-4h41.5v4z" data-paper-data="{&quot;index&quot;:null}" fill="none" stroke="#9e4b24" stroke-width="0.5" stroke-linecap="butt"/><path d="M218.87501,195.92039v-4h41.5v4z" data-paper-data="{&quot;index&quot;:null}" fill="none" stroke="#9e4b24" stroke-width="0.5" stroke-linecap="butt"/><path d="M287.375,171.92039c0,-0.82843 1.567,-1.5 3.5,-1.5c1.933,0 3.5,0.67157 3.5,1.5c0,0.82843 -1.567,1.5 -3.5,1.5c-1.933,0 -3.5,-0.67157 -3.5,-1.5z" data-paper-data="{&quot;index&quot;:null}" fill="#be5524" stroke="none" stroke-width="0" stroke-linecap="butt"/><path d="M273.375,183.17039c0,-0.9665 1.67893,-1.75 3.75,-1.75c2.07107,0 3.75,0.7835 3.75,1.75c0,0.9665 -1.67893,1.75 -3.75,1.75c-2.07107,0 -3.75,-0.7835 -3.75,-1.75z" data-paper-data="{&quot;index&quot;:null}" fill="#be5524" stroke="none" stroke-width="0" stroke-linecap="butt"/><path d="M267.375,167.17039c0,-0.9665 1.45507,-1.75 3.25,-1.75c1.79493,0 3.25,0.7835 3.25,1.75c0,0.9665 -1.45507,1.75 -3.25,1.75c-1.79493,0 -3.25,-0.7835 -3.25,-1.75z" data-paper-data="{&quot;index&quot;:null}" fill="#be5524" stroke="none" stroke-width="0" stroke-linecap="butt"/><path d="M205.875,184.92039c0,-1.10457 1.11929,-2 2.5,-2c1.38071,0 2.5,0.89543 2.5,2c0,1.10457 -1.11929,2 -2.5,2c-1.38071,0 -2.5,-0.89543 -2.5,-2z" data-paper-data="{&quot;index&quot;:null}" fill="#be5524" stroke="none" stroke-width="0" stroke-linecap="butt"/><path d="M199.375,174.67039c0,-0.9665 1.45508,-1.75 3.25,-1.75c1.79492,0 3.25,0.7835 3.25,1.75c0,0.9665 -1.45508,1.75 -3.25,1.75c-1.79492,0 -3.25,-0.7835 -3.25,-1.75z" data-paper-data="{&quot;index&quot;:null}" fill="#be5524" stroke="none" stroke-width="0" stroke-linecap="butt"/><path d="M202.375,166.92039c0,-0.82843 1.23122,-1.5 2.75,-1.5c1.51878,0 2.75,0.67157 2.75,1.5c0,0.82843 -1.23122,1.5 -2.75,1.5c-1.51878,0 -2.75,-0.67157 -2.75,-1.5z" data-paper-data="{&quot;index&quot;:null}" fill="#be5524" stroke="none" stroke-width="0" stroke-linecap="butt"/><path d="M268.375,153.92039c0,-0.55229 1.00736,-1 2.25,-1c1.24264,0 2.25,0.44771 2.25,1c0,0.55229 -1.00736,1 -2.25,1c-1.24264,0 -2.25,-0.44771 -2.25,-1z" data-paper-data="{&quot;index&quot;:null}" fill="#be5524" stroke="none" stroke-width="0" stroke-linecap="butt"/><path d="M293.375,191.92039c0,-0.82843 1.11929,-1.5 2.5,-1.5c1.38071,0 2.5,0.67157 2.5,1.5c0,0.82843 -1.11929,1.5 -2.5,1.5c-1.38071,0 -2.5,-0.67157 -2.5,-1.5z" data-paper-data="{&quot;index&quot;:null}" fill="#be5524" stroke="none" stroke-width="0" stroke-linecap="butt"/><path d="M213.125,149.92039c1.51878,0 2.75,0.55964 2.75,1.25c0,0.69036 -1.23122,1.25 -2.75,1.25c-1.51878,0 -2.75,-0.55964 -2.75,-1.25c0,-0.69036 1.23122,-1.25 2.75,-1.25z" data-paper-data="{&quot;index&quot;:null}" fill="#be5524" stroke="none" stroke-width="0" stroke-linecap="butt"/><path d="M289.79165,161.82226c3.59556,-5.48053 15.41424,-5.76688 28.05915,3.44561c2.395,1.74489 7.48649,8.8416 9.7757,10.80061c5.01735,4.29365 9.88887,9.48578 12.23024,12.47165c2.23054,2.84451 2.08654,3.52991 0.66459,5.69731c-1.10367,1.68225 -2.2424,2.40247 -4.4376,2.40341c-3.34444,0.00143 -8.2305,-2.20218 -14.2338,-4.99641c-2.89354,-1.3468 -10.12913,-2.08779 -12.97932,-4.16431c-12.64491,-9.21249 -22.67453,-20.17734 -19.07897,-25.65787z" data-paper-data="{&quot;index&quot;:null}" fill="#c76436" stroke="none" stroke-width="0" stroke-linecap="butt"/><path d="M294.87501,157.73798c0,-4.80265 2.59555,-11.81759 5.79731,-11.81759c3.20176,0 5.79731,7.01494 5.79731,11.81759c0,4.80265 -2.59554,4.68245 -5.79731,4.68245c-3.20176,0 -5.79731,0.1202 -5.79731,-4.68245z" data-paper-data="{&quot;index&quot;:null}" fill="#c76436" stroke="none" stroke-width="0" stroke-linecap="butt"/><path d="M306.375,184.92039c0,0 -5.67778,-6.26708 -7.58515,-9.7286c-2.45361,-4.45285 -3.91485,-15.7714 -3.91485,-15.7714" data-paper-data="{&quot;index&quot;:null}" fill="none" stroke="#9e4b24" stroke-width="0.5" stroke-linecap="round"/><path d="M314.86618,174.13863c1.57221,1.04966 3.30137,3.4325 2.6016,4.48064c-0.69977,1.04814 -3.56347,0.36466 -5.13568,-0.68499c-1.57221,-1.04966 -3.34059,-3.37306 -2.64082,-4.4212c0.69977,-1.04814 3.60269,-0.4241 5.1749,0.62556z" data-paper-data="{&quot;index&quot;:null}" fill="#ac562e" stroke="none" stroke-width="0" stroke-linecap="butt"/><path d="M313.50728,178.16555c-1.20812,0 -2.1875,-0.97938 -2.1875,-2.1875c0,-1.20812 0.97938,-2.1875 2.1875,-2.1875c1.20812,0 2.1875,0.97938 2.1875,2.1875c0,1.20812 -0.97938,2.1875 -2.1875,2.1875z" data-paper-data="{&quot;index&quot;:null}" fill="#000000" stroke="none" stroke-width="0" stroke-linecap="butt"/><path d="M314.56978,175.79055c-0.31066,0 -0.5625,-0.25184 -0.5625,-0.5625c0,-0.31066 0.25184,-0.5625 0.5625,-0.5625c0.31066,0 0.5625,0.25184 0.5625,0.5625c0,0.31066 -0.25184,0.5625 -0.5625,0.5625z" data-paper-data="{&quot;index&quot;:null}" fill="#ffffff" stroke="none" stroke-width="0" stroke-linecap="butt"/><path d="M285.625,180.29539c0,-0.75939 0.95139,-1.375 2.125,-1.375c1.17361,0 2.125,0.61561 2.125,1.375c0,0.75939 -0.95139,1.375 -2.125,1.375c-1.17361,0 -2.125,-0.61561 -2.125,-1.375z" data-paper-data="{&quot;index&quot;:null}" fill="#be5524" stroke="none" stroke-width="0" stroke-linecap="butt"/><path d="M275.75,187.67039c1.44975,0 2.625,0.61561 2.625,1.375c0,0.75939 -1.17525,1.375 -2.625,1.375c-1.44975,0 -2.625,-0.61561 -2.625,-1.375c0,-0.75939 1.17525,-1.375 2.625,-1.375z" data-paper-data="{&quot;index&quot;:null}" fill="#be5524" stroke="none" stroke-width="0" stroke-linecap="butt"/><path d="M277.875,162.54539c0,-0.89746 0.95139,-1.625 2.125,-1.625c1.17361,0 2.125,0.72754 2.125,1.625c0,0.89746 -0.95139,1.625 -2.125,1.625c-1.17361,0 -2.125,-0.72754 -2.125,-1.625z" data-paper-data="{&quot;index&quot;:null}" fill="#be5524" stroke="none" stroke-width="0" stroke-linecap="butt"/><path d="M210.375,194.17039c0,-0.55228 1.11929,-1 2.5,-1c1.38071,0 2.5,0.44772 2.5,1c0,0.55228 -1.11929,1 -2.5,1c-1.38071,0 -2.5,-0.44772 -2.5,-1z" data-paper-data="{&quot;index&quot;:null}" fill="#be5524" stroke="none" stroke-width="0" stroke-linecap="butt"/><path d="M211.125,163.42039c0,-0.41421 0.95139,-0.75 2.125,-0.75c1.17361,0 2.125,0.33579 2.125,0.75c0,0.41421 -0.95139,0.75 -2.125,0.75c-1.17361,0 -2.125,-0.33579 -2.125,-0.75z" data-paper-data="{&quot;index&quot;:null}" fill="#be5524" stroke="none" stroke-width="0" stroke-linecap="butt"/><path d="M210.875,175.54539c0,-0.75939 0.72754,-1.375 1.625,-1.375c0.89746,0 1.625,0.61561 1.625,1.375c0,0.75939 -0.72754,1.375 -1.625,1.375c-0.89746,0 -1.625,-0.61561 -1.625,-1.375z" data-paper-data="{&quot;index&quot;:null}" fill="#be5524" stroke="none" stroke-width="0" stroke-linecap="butt"/><path d="M264.125,193.17039c0,-0.69036 1.28718,-1.25 2.875,-1.25c1.58782,0 2.875,0.55964 2.875,1.25c0,0.69036 -1.28718,1.25 -2.875,1.25c-1.58782,0 -2.875,-0.55964 -2.875,-1.25z" data-paper-data="{&quot;index&quot;:null}" fill="#be5524" stroke="none" stroke-width="0" stroke-linecap="butt"/><path d="M314.50001,165.67039c0.89746,0 1.625,0.44772 1.625,1c0,0.55228 -0.72754,1 -1.625,1c-0.89746,0 -1.625,-0.44772 -1.625,-1c0,-0.55228 0.72754,-1 1.625,-1z" data-paper-data="{&quot;index&quot;:null}" fill="#be5524" stroke="none" stroke-width="0" stroke-linecap="butt"/><path d="M302.125,170.79539c0,-0.48325 0.95139,-0.875 2.125,-0.875c1.17361,0 2.125,0.39175 2.125,0.875c0,0.48325 -0.95139,0.875 -2.125,0.875c-1.17361,0 -2.125,-0.39175 -2.125,-0.875z" data-paper-data="{&quot;index&quot;:null}" fill="#be5524" stroke="none" stroke-width="0" stroke-linecap="butt"/><path d="M305.125,165.04539c0,-0.34518 0.67157,-0.625 1.5,-0.625c0.82843,0 1.5,0.27982 1.5,0.625c0,0.34518 -0.67157,0.625 -1.5,0.625c-0.82843,0 -1.5,-0.27982 -1.5,-0.625z" data-paper-data="{&quot;index&quot;:null}" fill="#be5524" stroke="none" stroke-width="0" stroke-linecap="butt"/><path d="M311.62501,184.54539c0,-0.48325 1.00736,-0.875 2.25,-0.875c1.24264,0 2.25,0.39175 2.25,0.875c0,0.48325 -1.00736,0.875 -2.25,0.875c-1.24264,0 -2.25,-0.39175 -2.25,-0.875z" data-paper-data="{&quot;index&quot;:null}" fill="#be5524" stroke="none" stroke-width="0" stroke-linecap="butt"/><path d="M323.62501,178.92039c0,-0.69036 0.89543,-1.25 2,-1.25c1.10457,0 2,0.55964 2,1.25c0,0.69036 -0.89543,1.25 -2,1.25c-1.10457,0 -2,-0.55964 -2,-1.25z" data-paper-data="{&quot;index&quot;:null}" fill="#be5524" stroke="none" stroke-width="0" stroke-linecap="butt"/><path d="M325.12501,188.92039c0,-0.55228 1.17525,-1 2.625,-1c1.44975,0 2.625,0.44772 2.625,1c0,0.55228 -1.17525,1 -2.625,1c-1.44975,0 -2.625,-0.44772 -2.625,-1z" data-paper-data="{&quot;index&quot;:null}" fill="#be5524" stroke="none" stroke-width="0" stroke-linecap="butt"/><path d="M332.87501,186.92039c0,-0.55228 0.89543,-1 2,-1c1.10457,0 2,0.44772 2,1c0,0.55228 -0.89543,1 -2,1c-1.10457,0 -2,-0.44772 -2,-1z" data-paper-data="{&quot;index&quot;:null}" fill="#be5524" stroke="none" stroke-width="0" stroke-linecap="butt"/><path d="M338.87501,191.79539c0,-0.62132 0.75368,-1.625 1.375,-1.625c0.62132,0 1.375,0.75368 1.375,1.375c0,0.62132 -0.50368,2.125 -1.125,2.125c-0.62132,0 -1.625,-1.25368 -1.625,-1.875z" data-paper-data="{&quot;index&quot;:null}" fill="#efae8a" stroke="none" stroke-width="0" stroke-linecap="butt"/><path d="M338.62501,191.67039c0,0 -3.6257,-3.13852 -6.33313,-4.87002c-1.83663,-1.17459 -5.86692,-1.27245 -8.86021,-3.18676c-3.47133,-2.22004 -6.30666,-5.69322 -6.30666,-5.69322" data-paper-data="{&quot;index&quot;:null}" fill="none" stroke="#ac562e" stroke-width="0.5" stroke-linecap="round"/></g></g></svg>