<svg version="1.1" xmlns="http://www.w3.org/2000/svg" xmlns:xlink="http://www.w3.org/1999/xlink" width="100" height="100" viewBox="0,0,215.85907,76.63776"><g transform="translate(-132.07047,-141.55612)"><g data-paper-data="{&quot;isPaintingLayer&quot;:true}" fill-rule="nonzero" stroke-linejoin="miter" stroke-miterlimit="10" stroke-dasharray="" stroke-dashoffset="0" style="mix-blend-mode: normal"><path d="M223.91511,213.51459c0,0 0.77797,-0.48945 -1.54493,-2.15787c-1.96384,-1.41054 -4.3104,-4.38958 -4.49821,-5.28702c-0.52887,-2.52713 -3.54913,-10.11032 -3.54913,-10.11032l12.33781,-1.31461c0,0 -0.78608,5.3777 -0.44277,8.25381c0.17796,1.49089 3.00386,4.06714 3.60163,6.0062c0.56648,1.83757 -1.08906,3.08037 -1.08906,3.08037z" data-paper-data="{&quot;index&quot;:null}" fill="#c76436" stroke="none" stroke-width="0" stroke-linecap="butt"/><path d="M224.3571,213.97726l-0.66667,-5.58523l10.7583,0.40663l0.41667,3.49077z" data-paper-data="{&quot;index&quot;:null}" fill="#c76436" stroke="none" stroke-width="0" stroke-linecap="butt"/><path d="M234.86539,212.28944l-0.41667,-3.49077l3.62778,0.48461l0.29167,2.44354z" data-paper-data="{&quot;index&quot;:null}" fill="#e6e6e6" stroke="none" stroke-width="0" stroke-linecap="butt"/><path d="M282.7817,211.72549c0,0 0.89093,0.02902 -0.28126,-2.93167c-0.991,-2.50308 -1.56012,-6.68181 -1.29236,-7.6214c0.75399,-2.64584 1.17637,-9.80514 1.17637,-9.80514l11.58677,4.9962c0,0 -2.18422,2.76981 -3.17484,6.33049c-0.7806,2.80575 -0.64382,7.18171 -1.15927,8.54688c-0.67734,1.79395 -2.05407,2.04175 -2.05407,2.04175z" data-paper-data="{&quot;index&quot;:null}" fill="#c76436" stroke="none" stroke-width="0" stroke-linecap="butt"/><path d="M282.93566,212.53994l2.09127,-4.78053l8.90923,6.03316l-1.30704,2.98783z" data-paper-data="{&quot;index&quot;:null}" fill="#c76436" stroke="none" stroke-width="0" stroke-linecap="butt"/><path d="M292.62914,216.78039l1.30704,-2.98783l2.83903,2.30983l-0.91493,2.09149z" data-paper-data="{&quot;index&quot;:null}" fill="#e6e6e6" stroke="none" stroke-width="0" stroke-linecap="butt"/><path d="M201.07046,184.30612c0,0 -20.66829,2.5 -29.5,2.5c-7.67082,0 -16,-1.5 -16,-1.5c0,0 -8.7909,-4.02498 -10.62432,-6.54594c-2.12374,-2.92015 -12.87567,-3.95406 -12.87567,-3.95406c0,0 10.19169,-3.7244 13.32099,-2.14525c4.73165,2.38775 8.60696,5.46951 13.29081,5.88501c4.34682,0.3856 9.8657,0.79919 16.8985,0.54379c11.47632,-0.41678 25.48971,-5.78355 25.48971,-5.78355v11z" data-paper-data="{&quot;index&quot;:null}" fill="#be5524" stroke="none" stroke-width="0" stroke-linecap="butt"/><path d="M190.82048,176.05612c0,-18.50154 26.97485,-33.5 60.25,-33.5c33.27515,0 60.25,20.99846 60.25,39.5c0,13.43354 -15.22122,18.55811 -36.29713,18.988c-7.95119,0.16218 -16.73567,-2.488 -25.85051,-2.488c-10.92723,0 -21.44481,2.0688 -30.00616,0.83441c-17.5093,-2.52454 -28.3462,-10.90859 -28.3462,-23.33441z" data-paper-data="{&quot;index&quot;:null}" fill="#c76436" stroke="none" stroke-width="0" stroke-linecap="butt"/><path d="M247.57048,198.80612c-7.32548,0 -24,1 -24,1c0,0 -2,-28.35715 -2,-38c0,-5.35715 2,-15 2,-15c0,0 16.75046,-4.5 24.5,-4.5c6.26633,0 18.5,2.5 18.5,2.5c0,0 -2,11.67279 -2,21c0,8.994 2,34 2,34c0,0 -12.00767,-1 -19,-1z" data-paper-data="{&quot;index&quot;:null}" fill="#be5524" stroke="none" stroke-width="0" stroke-linecap="butt"/><path d="M261.57048,199.30612l-1.5,-56" data-paper-data="{&quot;index&quot;:null}" fill="none" stroke="#9e4b24" stroke-width="0.5" stroke-linecap="round"/><path d="M256.57048,198.80612l-1,-56" data-paper-data="{&quot;index&quot;:null}" fill="none" stroke="#9e4b24" stroke-width="0.5" stroke-linecap="round"/><path d="M250.57048,142.80612l1.5,55.5" data-paper-data="{&quot;index&quot;:null}" fill="none" stroke="#9e4b24" stroke-width="0.5" stroke-linecap="round"/><path d="M247.07048,197.80612l-2,-56" data-paper-data="{&quot;index&quot;:null}" fill="none" stroke="#9e4b24" stroke-width="0.5" stroke-linecap="round"/><path d="M228.57048,199.80612l-1.5,-54.5" data-paper-data="{&quot;index&quot;:null}" fill="none" stroke="#9e4b24" stroke-width="0.5" stroke-linecap="round"/><path d="M231.57048,144.30612l1.5,54.5" data-paper-data="{&quot;index&quot;:null}" fill="none" stroke="#9e4b24" stroke-width="0.5" stroke-linecap="round"/><path d="M236.57048,143.80612l2,54" data-paper-data="{&quot;index&quot;:null}" fill="none" stroke="#9e4b24" stroke-width="0.5" stroke-linecap="round"/><path d="M243.07048,198.80612l-2,-56" data-paper-data="{&quot;index&quot;:null}" fill="none" stroke="#9e4b24" stroke-width="0.5" stroke-linecap="round"/><path d="M223.57048,191.80612v-4h41.5v4z" data-paper-data="{&quot;index&quot;:null}" fill="none" stroke="#9e4b24" stroke-width="0.5" stroke-linecap="butt"/><path d="M223.07048,188.30612v-4h41.5v4z" data-paper-data="{&quot;index&quot;:null}" fill="none" stroke="#9e4b24" stroke-width="0.5" stroke-linecap="butt"/><path d="M223.57048,184.80612v-4h41.5v4z" data-paper-data="{&quot;index&quot;:null}" fill="none" stroke="#9e4b24" stroke-width="0.5" stroke-linecap="butt"/><path d="M222.57048,181.30612v-4h41.5v4z" data-paper-data="{&quot;index&quot;:null}" fill="none" stroke="#9e4b24" stroke-width="0.5" stroke-linecap="butt"/><path d="M222.07048,177.80612v-4h41.5v4z" data-paper-data="{&quot;index&quot;:null}" fill="none" stroke="#9e4b24" stroke-width="0.5" stroke-linecap="butt"/><path d="M222.57048,174.30612v-4h41.5v4z" data-paper-data="{&quot;index&quot;:null}" fill="none" stroke="#9e4b24" stroke-width="0.5" stroke-linecap="butt"/><path d="M222.57048,171.30612v-4h41.5v4z" data-paper-data="{&quot;index&quot;:null}" fill="none" stroke="#9e4b24" stroke-width="0.5" stroke-linecap="butt"/><path d="M222.07048,167.80612v-4h41.5v4z" data-paper-data="{&quot;index&quot;:null}" fill="none" stroke="#9e4b24" stroke-width="0.5" stroke-linecap="butt"/><path d="M222.57048,164.30612v-4h41.5v4z" data-paper-data="{&quot;index&quot;:null}" fill="none" stroke="#9e4b24" stroke-width="0.5" stroke-linecap="butt"/><path d="M223.07048,159.80612v-4h41.5v4z" data-paper-data="{&quot;index&quot;:null}" fill="none" stroke="#9e4b24" stroke-width="0.5" stroke-linecap="butt"/><path d="M222.57048,156.30612v-4h41.5v4z" data-paper-data="{&quot;index&quot;:null}" fill="none" stroke="#9e4b24" stroke-width="0.5" stroke-linecap="butt"/><path d="M223.07048,152.80612v-4h41.5v4z" data-paper-data="{&quot;index&quot;:null}" fill="none" stroke="#9e4b24" stroke-width="0.5" stroke-linecap="butt"/><path d="M223.57048,195.30612v-4h41.5v4z" data-paper-data="{&quot;index&quot;:null}" fill="none" stroke="#9e4b24" stroke-width="0.5" stroke-linecap="butt"/><path d="M292.07048,171.30612c0,-0.82843 1.567,-1.5 3.5,-1.5c1.933,0 3.5,0.67157 3.5,1.5c0,0.82843 -1.567,1.5 -3.5,1.5c-1.933,0 -3.5,-0.67157 -3.5,-1.5z" data-paper-data="{&quot;index&quot;:null}" fill="#be5524" stroke="none" stroke-width="0" stroke-linecap="butt"/><path d="M278.07048,182.55612c0,-0.9665 1.67893,-1.75 3.75,-1.75c2.07107,0 3.75,0.7835 3.75,1.75c0,0.9665 -1.67893,1.75 -3.75,1.75c-2.07107,0 -3.75,-0.7835 -3.75,-1.75z" data-paper-data="{&quot;index&quot;:null}" fill="#be5524" stroke="none" stroke-width="0" stroke-linecap="butt"/><path d="M272.07048,166.55612c0,-0.9665 1.45507,-1.75 3.25,-1.75c1.79493,0 3.25,0.7835 3.25,1.75c0,0.9665 -1.45507,1.75 -3.25,1.75c-1.79493,0 -3.25,-0.7835 -3.25,-1.75z" data-paper-data="{&quot;index&quot;:null}" fill="#be5524" stroke="none" stroke-width="0" stroke-linecap="butt"/><path d="M210.57048,184.30612c0,-1.10457 1.11929,-2 2.5,-2c1.38071,0 2.5,0.89543 2.5,2c0,1.10457 -1.11929,2 -2.5,2c-1.38071,0 -2.5,-0.89543 -2.5,-2z" data-paper-data="{&quot;index&quot;:null}" fill="#be5524" stroke="none" stroke-width="0" stroke-linecap="butt"/><path d="M204.07048,174.05612c0,-0.9665 1.45508,-1.75 3.25,-1.75c1.79492,0 3.25,0.7835 3.25,1.75c0,0.9665 -1.45508,1.75 -3.25,1.75c-1.79492,0 -3.25,-0.7835 -3.25,-1.75z" data-paper-data="{&quot;index&quot;:null}" fill="#be5524" stroke="none" stroke-width="0" stroke-linecap="butt"/><path d="M207.07048,166.30612c0,-0.82843 1.23122,-1.5 2.75,-1.5c1.51878,0 2.75,0.67157 2.75,1.5c0,0.82843 -1.23122,1.5 -2.75,1.5c-1.51878,0 -2.75,-0.67157 -2.75,-1.5z" data-paper-data="{&quot;index&quot;:null}" fill="#be5524" stroke="none" stroke-width="0" stroke-linecap="butt"/><path d="M273.07048,153.30612c0,-0.55229 1.00736,-1 2.25,-1c1.24264,0 2.25,0.44771 2.25,1c0,0.55229 -1.00736,1 -2.25,1c-1.24264,0 -2.25,-0.44771 -2.25,-1z" data-paper-data="{&quot;index&quot;:null}" fill="#be5524" stroke="none" stroke-width="0" stroke-linecap="butt"/><path d="M298.07048,191.30612c0,-0.82843 1.11929,-1.5 2.5,-1.5c1.38071,0 2.5,0.67157 2.5,1.5c0,0.82843 -1.11929,1.5 -2.5,1.5c-1.38071,0 -2.5,-0.67157 -2.5,-1.5z" data-paper-data="{&quot;index&quot;:null}" fill="#be5524" stroke="none" stroke-width="0" stroke-linecap="butt"/><path d="M217.82048,149.30612c1.51878,0 2.75,0.55964 2.75,1.25c0,0.69036 -1.23122,1.25 -2.75,1.25c-1.51878,0 -2.75,-0.55964 -2.75,-1.25c0,-0.69036 1.23122,-1.25 2.75,-1.25z" data-paper-data="{&quot;index&quot;:null}" fill="#be5524" stroke="none" stroke-width="0" stroke-linecap="butt"/><path d="M293.78497,163.37999c3.12411,-5.76231 14.87732,-7.03711 28.24911,1.08441c2.53268,1.53825 8.20043,8.18379 10.64561,9.94427c5.3592,3.85852 10.6483,8.62458 13.23143,11.40395c2.46085,2.64778 2.37473,3.34283 1.13923,5.62167c-0.95896,1.76875 -2.0334,2.58177 -4.22081,2.76649c-3.33258,0.28142 -8.38597,-1.50539 -14.60213,-3.78722c-2.99614,-1.09982 -10.26836,-1.23245 -13.28239,-3.06306c-13.37178,-8.12152 -24.28417,-18.2082 -21.16006,-23.97051z" data-paper-data="{&quot;index&quot;:null}" fill="#c76436" stroke="none" stroke-width="0" stroke-linecap="butt"/><path d="M298.50854,158.88447c-0.40208,-4.78579 1.59707,-11.9934 4.78759,-12.26145c3.19052,-0.26805 6.36424,6.50496 6.76632,11.29075c0.40208,4.78579 -2.19441,4.88331 -5.38494,5.15136c-3.19052,0.26805 -5.76689,0.60513 -6.16897,-4.18066z" data-paper-data="{&quot;index&quot;:null}" fill="#c76436" stroke="none" stroke-width="0" stroke-linecap="butt"/><path d="M312.24387,185.00868c0,0 -6.18253,-5.76974 -8.373,-9.05942c-2.81778,-4.2318 -5.22148,-15.38828 -5.22148,-15.38828" data-paper-data="{&quot;index&quot;:null}" fill="none" stroke="#9e4b24" stroke-width="0.5" stroke-linecap="round"/><path d="M319.80259,173.5539c1.65456,0.91435 3.57714,3.14406 2.96758,4.2471c-0.60957,1.10304 -3.52043,0.66171 -5.175,-0.25263c-1.65457,-0.91435 -3.61125,-3.08155 -3.00169,-4.18459c0.60956,-1.10305 3.55453,-0.72423 5.2091,0.19012z" data-paper-data="{&quot;index&quot;:null}" fill="#ac562e" stroke="none" stroke-width="0" stroke-linecap="butt"/><path d="M318.78559,177.68044c-1.20388,0.10115 -2.26182,-0.7928 -2.36296,-1.99668c-0.10115,-1.20388 0.7928,-2.26182 1.99668,-2.36296c1.20388,-0.10115 2.26182,0.7928 2.36296,1.99668c0.10115,1.20388 -0.7928,2.26182 -1.99668,2.36296z" data-paper-data="{&quot;index&quot;:null}" fill="#000000" stroke="none" stroke-width="0" stroke-linecap="butt"/><path d="M319.64552,175.22483c-0.30957,0.02601 -0.58161,-0.20386 -0.60762,-0.51343c-0.02601,-0.30957 0.20386,-0.58161 0.51343,-0.60762c0.30957,-0.02601 0.58161,0.20386 0.60762,0.51343c0.02601,0.30957 -0.20386,0.58161 -0.51343,0.60762z" data-paper-data="{&quot;index&quot;:null}" fill="#ffffff" stroke="none" stroke-width="0" stroke-linecap="butt"/><path d="M290.32048,179.68112c0,-0.75939 0.95139,-1.375 2.125,-1.375c1.17361,0 2.125,0.61561 2.125,1.375c0,0.75939 -0.95139,1.375 -2.125,1.375c-1.17361,0 -2.125,-0.61561 -2.125,-1.375z" data-paper-data="{&quot;index&quot;:null}" fill="#be5524" stroke="none" stroke-width="0" stroke-linecap="butt"/><path d="M280.44548,187.05612c1.44975,0 2.625,0.61561 2.625,1.375c0,0.75939 -1.17525,1.375 -2.625,1.375c-1.44975,0 -2.625,-0.61561 -2.625,-1.375c0,-0.75939 1.17525,-1.375 2.625,-1.375z" data-paper-data="{&quot;index&quot;:null}" fill="#be5524" stroke="none" stroke-width="0" stroke-linecap="butt"/><path d="M282.57048,161.93112c0,-0.89746 0.95139,-1.625 2.125,-1.625c1.17361,0 2.125,0.72754 2.125,1.625c0,0.89746 -0.95139,1.625 -2.125,1.625c-1.17361,0 -2.125,-0.72754 -2.125,-1.625z" data-paper-data="{&quot;index&quot;:null}" fill="#be5524" stroke="none" stroke-width="0" stroke-linecap="butt"/><path d="M215.07048,193.55612c0,-0.55228 1.11929,-1 2.5,-1c1.38071,0 2.5,0.44772 2.5,1c0,0.55228 -1.11929,1 -2.5,1c-1.38071,0 -2.5,-0.44772 -2.5,-1z" data-paper-data="{&quot;index&quot;:null}" fill="#be5524" stroke="none" stroke-width="0" stroke-linecap="butt"/><path d="M215.82048,162.80612c0,-0.41421 0.95139,-0.75 2.125,-0.75c1.17361,0 2.125,0.33579 2.125,0.75c0,0.41421 -0.95139,0.75 -2.125,0.75c-1.17361,0 -2.125,-0.33579 -2.125,-0.75z" data-paper-data="{&quot;index&quot;:null}" fill="#be5524" stroke="none" stroke-width="0" stroke-linecap="butt"/><path d="M215.57048,174.93112c0,-0.75939 0.72754,-1.375 1.625,-1.375c0.89746,0 1.625,0.61561 1.625,1.375c0,0.75939 -0.72754,1.375 -1.625,1.375c-0.89746,0 -1.625,-0.61561 -1.625,-1.375z" data-paper-data="{&quot;index&quot;:null}" fill="#be5524" stroke="none" stroke-width="0" stroke-linecap="butt"/><path d="M268.82048,192.55612c0,-0.69036 1.28718,-1.25 2.875,-1.25c1.58782,0 2.875,0.55964 2.875,1.25c0,0.69036 -1.28718,1.25 -2.875,1.25c-1.58782,0 -2.875,-0.55964 -2.875,-1.25z" data-paper-data="{&quot;index&quot;:null}" fill="#be5524" stroke="none" stroke-width="0" stroke-linecap="butt"/><path d="M318.72874,165.14604c0.8943,-0.07514 1.65677,0.3101 1.70301,0.86044c0.04623,0.55034 -0.64127,1.05739 -1.53558,1.13253c-0.8943,0.07514 -1.65677,-0.3101 -1.70301,-0.86044c-0.04623,-0.55034 0.64127,-1.05739 1.53558,-1.13253z" data-paper-data="{&quot;index&quot;:null}" fill="#be5524" stroke="none" stroke-width="0" stroke-linecap="butt"/><path d="M306.82625,171.28908c-0.04045,-0.48155 0.8748,-0.95158 2.04429,-1.04983c1.16949,-0.09826 2.15033,0.21247 2.19079,0.69402c0.04045,0.48155 -0.8748,0.95158 -2.04429,1.04983c-1.16949,0.09826 -2.15033,-0.21247 -2.19079,-0.69402z" data-paper-data="{&quot;index&quot;:null}" fill="#be5524" stroke="none" stroke-width="0" stroke-linecap="butt"/><path d="M309.33432,165.3081c-0.0289,-0.34397 0.61689,-0.67903 1.44241,-0.74839c0.82552,-0.06935 1.51816,0.15326 1.54706,0.49723c0.0289,0.34397 -0.61689,0.67903 -1.44241,0.74839c-0.82552,0.06935 -1.51816,-0.15326 -1.54706,-0.49723z" data-paper-data="{&quot;index&quot;:null}" fill="#be5524" stroke="none" stroke-width="0" stroke-linecap="butt"/><path d="M317.44404,184.19546c-0.04045,-0.48156 0.93057,-0.95627 2.16885,-1.0603c1.23828,-0.10403 2.2749,0.20201 2.31536,0.68356c0.04045,0.48156 -0.93057,0.95627 -2.16885,1.0603c-1.23828,0.10403 -2.2749,-0.20201 -2.31536,-0.68356z" data-paper-data="{&quot;index&quot;:null}" fill="#be5524" stroke="none" stroke-width="0" stroke-linecap="butt"/><path d="M328.93099,177.58558c-0.0578,-0.68794 0.78764,-1.32058 1.88833,-1.41305c1.10069,-0.09248 2.03983,0.39023 2.09763,1.07817c0.0578,0.68794 -0.78764,1.32058 -1.88833,1.41305c-1.10069,0.09248 -2.03983,-0.39023 -2.09763,-1.07817z" data-paper-data="{&quot;index&quot;:null}" fill="#be5524" stroke="none" stroke-width="0" stroke-linecap="butt"/><path d="M331.26293,187.42489c-0.04624,-0.55034 1.0874,-1.09488 2.53206,-1.21625c1.44466,-0.12138 2.65326,0.22638 2.6995,0.77672c0.04624,0.55034 -1.0874,1.09488 -2.53206,1.21625c-1.44466,0.12138 -2.65326,-0.22638 -2.6995,-0.77672z" data-paper-data="{&quot;index&quot;:null}" fill="#be5524" stroke="none" stroke-width="0" stroke-linecap="butt"/><path d="M338.81827,184.78308c-0.04624,-0.55034 0.80857,-1.07146 1.90926,-1.16393c1.10069,-0.09247 2.03046,0.27871 2.0767,0.82905c0.04624,0.55034 -0.80857,1.07146 -1.90926,1.16393c-1.10069,0.09247 -2.03046,-0.27871 -2.0767,-0.82905z" data-paper-data="{&quot;index&quot;:null}" fill="#be5524" stroke="none" stroke-width="0" stroke-linecap="butt"/><path d="M345.20534,189.13865c-0.05201,-0.61914 0.61499,-1.68239 1.23413,-1.73441c0.61914,-0.05201 1.43327,0.63592 1.48529,1.25506c0.05201,0.61913 -0.32401,2.1597 -0.94315,2.21172c-0.61914,0.05202 -1.72425,-1.11323 -1.77627,-1.73237z" data-paper-data="{&quot;index&quot;:null}" fill="#efae8a" stroke="none" stroke-width="0" stroke-linecap="butt"/><path d="M344.94575,189.03501c0,0 -3.87572,-2.82395 -6.71861,-4.32271c-1.92852,-1.01671 -5.95285,-0.77681 -9.0959,-2.4338c-3.645,-1.92163 -6.76115,-5.14524 -6.76115,-5.14524" data-paper-data="{&quot;index&quot;:null}" fill="none" stroke="#ac562e" stroke-width="0.5" stroke-linecap="round"/></g></g></svg>