<svg version="1.1" xmlns="http://www.w3.org/2000/svg" xmlns:xlink="http://www.w3.org/1999/xlink" width="100" height="100" viewBox="0,0,215.25001,73.975"><g transform="translate(-132.37499,-142.8875)"><g data-paper-data="{&quot;isPaintingLayer&quot;:true}" fill-rule="nonzero" stroke-linejoin="miter" stroke-miterlimit="10" stroke-dasharray="" stroke-dashoffset="0" style="mix-blend-mode: normal"><path d="M219.99956,216.37331c0,0 0.82628,-0.33412 -1.27181,-2.20551c-1.77379,-1.58214 -3.74071,-4.65841 -3.82042,-5.50871c-0.22447,-2.3944 -2.31403,-9.79034 -2.31403,-9.79034l12.34378,0.61148c0,0 -1.41072,4.81381 -1.41072,7.50079c0,1.39285 2.48796,4.17048 2.84986,6.03596c0.34295,1.76785 -1.43914,2.66333 -1.43914,2.66333z" data-paper-data="{&quot;index&quot;:null}" fill="#c76436" stroke="none" stroke-width="0" stroke-linecap="butt"/><path d="M220.38163,216.8625v-5.21794l10.58038,1.95673v3.26121z" data-paper-data="{&quot;index&quot;:null}" fill="#c76436" stroke="none" stroke-width="0" stroke-linecap="butt"/><path d="M230.962,216.8625v-3.26121l3.5268,0.97836v2.28285z" data-paper-data="{&quot;index&quot;:null}" fill="#e6e6e6" stroke="none" stroke-width="0" stroke-linecap="butt"/><path d="M288.8896,216.37331c0,0 0.82628,-0.33412 -1.27181,-2.20551c-1.77379,-1.58214 -3.74071,-4.65841 -3.82042,-5.50871c-0.22447,-2.39441 -2.31404,-8.22496 -2.31404,-8.22496l12.34377,-0.69301c0,0 -1.04298,3.06565 -0.71885,6.27831c0.2554,2.53152 1.89445,5.93702 1.89445,7.22312c0,1.69003 -1.1756,2.43776 -1.1756,2.43776z" data-paper-data="{&quot;index&quot;:null}" fill="#c76436" stroke="none" stroke-width="0" stroke-linecap="butt"/><path d="M289.27166,216.8625v-5.21794l10.58038,1.95673v3.26121z" data-paper-data="{&quot;index&quot;:null}" fill="#c76436" stroke="none" stroke-width="0" stroke-linecap="butt"/><path d="M299.85204,216.8625v-3.26121l3.52679,0.97836v2.28285z" data-paper-data="{&quot;index&quot;:null}" fill="#e6e6e6" stroke="none" stroke-width="0" stroke-linecap="butt"/><path d="M202.37498,185.6375c0,0 -20.66829,2.5 -29.5,2.5c-7.67082,0 -14.5,-1.5 -14.5,-1.5c0,0 -12.2909,-2.02498 -14.12432,-4.54594c-2.12374,-2.92015 -11.87567,2.04594 -11.87567,2.04594c0,0 11.19169,-9.7244 14.32099,-8.14525c4.73165,2.38775 9.60696,4.96951 14.29081,5.38501c4.34682,0.3856 8.8657,-0.70081 15.8985,-0.95621c11.47632,-0.41678 25.48971,-5.78355 25.48971,-5.78355v11z" data-paper-data="{&quot;index&quot;:null}" fill="#be5524" stroke="none" stroke-width="0" stroke-linecap="butt"/><path d="M192.12501,177.3875c0,-18.50154 26.97485,-33.5 60.25,-33.5c33.27515,0 60.25,20.99846 60.25,39.5c0,13.43354 -15.22122,18.55811 -36.29713,18.988c-7.95119,0.16218 -16.73567,-2.488 -25.85051,-2.488c-10.92723,0 -21.44481,2.0688 -30.00616,0.83441c-17.5093,-2.52454 -28.3462,-10.90859 -28.3462,-23.33441z" data-paper-data="{&quot;index&quot;:null}" fill="#c76436" stroke="none" stroke-width="0" stroke-linecap="butt"/><path d="M248.87501,200.1375c-7.32548,0 -24,1 -24,1c0,0 -2,-28.35715 -2,-38c0,-5.35715 2,-15 2,-15c0,0 16.75046,-4.5 24.5,-4.5c6.26633,0 18.5,2.5 18.5,2.5c0,0 -2,11.67279 -2,21c0,8.994 2,34 2,34c0,0 -12.00767,-1 -19,-1z" data-paper-data="{&quot;index&quot;:null}" fill="#be5524" stroke="none" stroke-width="0" stroke-linecap="butt"/><path d="M261.375,144.6375l1.5,56" data-paper-data="{&quot;index&quot;:null}" fill="none" stroke="#9e4b24" stroke-width="0.5" stroke-linecap="round"/><path d="M257.875,200.1375l-1,-56" data-paper-data="{&quot;index&quot;:null}" fill=" " stroke="#9e4b24" stroke-width="0.5" stroke-linecap="round"/><path d="M253.375,199.6375l-1.5,-55.5" data-paper-data="{&quot;index&quot;:null}" fill="none" stroke="#9e4b24" stroke-width="0.5" stroke-linecap="round"/><path d="M248.375,199.1375l-2,-56" data-paper-data="{&quot;index&quot;:null}" fill="none" stroke="#9e4b24" stroke-width="0.5" stroke-linecap="round"/><path d="M228.375,146.6375l1.5,54.5" data-paper-data="{&quot;index&quot;:null}" fill="none" stroke="#9e4b24" stroke-width="0.5" stroke-linecap="round"/><path d="M232.875,145.6375l1.5,54.5" data-paper-data="{&quot;index&quot;:null}" fill="none" stroke="#9e4b24" stroke-width="0.5" stroke-linecap="round"/><path d="M239.875,199.1375l-2,-54" data-paper-data="{&quot;index&quot;:null}" fill="none" stroke="#9e4b24" stroke-width="0.5" stroke-linecap="round"/><path d="M242.375,144.1375l2,56" data-paper-data="{&quot;index&quot;:null}" fill="none" stroke="#9e4b24" stroke-width="0.5" stroke-linecap="round"/><path d="M224.875,193.1375v-4h41.5v4z" data-paper-data="{&quot;index&quot;:null}" fill="none" stroke="#9e4b24" stroke-width="0.5" stroke-linecap="butt"/><path d="M224.375,189.6375v-4h41.5v4z" data-paper-data="{&quot;index&quot;:null}" fill="none" stroke="#9e4b24" stroke-width="0.5" stroke-linecap="butt"/><path d="M224.875,186.1375v-4h41.5v4z" data-paper-data="{&quot;index&quot;:null}" fill="none" stroke="#9e4b24" stroke-width="0.5" stroke-linecap="butt"/><path d="M223.87501,182.6375v-4h41.5v4z" data-paper-data="{&quot;index&quot;:null}" fill="none" stroke="#9e4b24" stroke-width="0.5" stroke-linecap="butt"/><path d="M223.37501,179.1375v-4h41.5v4z" data-paper-data="{&quot;index&quot;:null}" fill="none" stroke="#9e4b24" stroke-width="0.5" stroke-linecap="butt"/><path d="M223.87501,175.6375v-4h41.5v4z" data-paper-data="{&quot;index&quot;:null}" fill="none" stroke="#9e4b24" stroke-width="0.5" stroke-linecap="butt"/><path d="M223.87501,172.6375v-4h41.5v4z" data-paper-data="{&quot;index&quot;:null}" fill="none" stroke="#9e4b24" stroke-width="0.5" stroke-linecap="butt"/><path d="M223.37501,169.1375v-4h41.5v4z" data-paper-data="{&quot;index&quot;:null}" fill="none" stroke="#9e4b24" stroke-width="0.5" stroke-linecap="butt"/><path d="M223.87501,165.6375v-4h41.5v4z" data-paper-data="{&quot;index&quot;:null}" fill="none" stroke="#9e4b24" stroke-width="0.5" stroke-linecap="butt"/><path d="M224.375,161.1375v-4h41.5v4z" data-paper-data="{&quot;index&quot;:null}" fill="none" stroke="#9e4b24" stroke-width="0.5" stroke-linecap="butt"/><path d="M223.87501,157.6375v-4h41.5v4z" data-paper-data="{&quot;index&quot;:null}" fill="none" stroke="#9e4b24" stroke-width="0.5" stroke-linecap="butt"/><path d="M224.375,154.1375v-4h41.5v4z" data-paper-data="{&quot;index&quot;:null}" fill="none" stroke="#9e4b24" stroke-width="0.5" stroke-linecap="butt"/><path d="M224.875,196.6375v-4h41.5v4z" data-paper-data="{&quot;index&quot;:null}" fill="none" stroke="#9e4b24" stroke-width="0.5" stroke-linecap="butt"/><path d="M293.375,172.6375c0,-0.82843 1.567,-1.5 3.5,-1.5c1.933,0 3.5,0.67157 3.5,1.5c0,0.82843 -1.567,1.5 -3.5,1.5c-1.933,0 -3.5,-0.67157 -3.5,-1.5z" data-paper-data="{&quot;index&quot;:null}" fill="#be5524" stroke="none" stroke-width="0" stroke-linecap="butt"/><path d="M279.375,183.8875c0,-0.9665 1.67893,-1.75 3.75,-1.75c2.07107,0 3.75,0.7835 3.75,1.75c0,0.9665 -1.67893,1.75 -3.75,1.75c-2.07107,0 -3.75,-0.7835 -3.75,-1.75z" data-paper-data="{&quot;index&quot;:null}" fill="#be5524" stroke="none" stroke-width="0" stroke-linecap="butt"/><path d="M273.375,167.8875c0,-0.9665 1.45507,-1.75 3.25,-1.75c1.79493,0 3.25,0.7835 3.25,1.75c0,0.9665 -1.45507,1.75 -3.25,1.75c-1.79493,0 -3.25,-0.7835 -3.25,-1.75z" data-paper-data="{&quot;index&quot;:null}" fill="#be5524" stroke="none" stroke-width="0" stroke-linecap="butt"/><path d="M211.875,185.6375c0,-1.10457 1.11929,-2 2.5,-2c1.38071,0 2.5,0.89543 2.5,2c0,1.10457 -1.11929,2 -2.5,2c-1.38071,0 -2.5,-0.89543 -2.5,-2z" data-paper-data="{&quot;index&quot;:null}" fill="#be5524" stroke="none" stroke-width="0" stroke-linecap="butt"/><path d="M205.375,175.3875c0,-0.9665 1.45508,-1.75 3.25,-1.75c1.79492,0 3.25,0.7835 3.25,1.75c0,0.9665 -1.45508,1.75 -3.25,1.75c-1.79492,0 -3.25,-0.7835 -3.25,-1.75z" data-paper-data="{&quot;index&quot;:null}" fill="#be5524" stroke="none" stroke-width="0" stroke-linecap="butt"/><path d="M208.375,167.6375c0,-0.82843 1.23122,-1.5 2.75,-1.5c1.51878,0 2.75,0.67157 2.75,1.5c0,0.82843 -1.23122,1.5 -2.75,1.5c-1.51878,0 -2.75,-0.67157 -2.75,-1.5z" data-paper-data="{&quot;index&quot;:null}" fill="#be5524" stroke="none" stroke-width="0" stroke-linecap="butt"/><path d="M274.375,154.6375c0,-0.55229 1.00736,-1 2.25,-1c1.24264,0 2.25,0.44771 2.25,1c0,0.55229 -1.00736,1 -2.25,1c-1.24264,0 -2.25,-0.44771 -2.25,-1z" data-paper-data="{&quot;index&quot;:null}" fill="#be5524" stroke="none" stroke-width="0" stroke-linecap="butt"/><path d="M299.375,192.6375c0,-0.82843 1.11929,-1.5 2.5,-1.5c1.38071,0 2.5,0.67157 2.5,1.5c0,0.82843 -1.11929,1.5 -2.5,1.5c-1.38071,0 -2.5,-0.67157 -2.5,-1.5z" data-paper-data="{&quot;index&quot;:null}" fill="#be5524" stroke="none" stroke-width="0" stroke-linecap="butt"/><path d="M219.125,150.6375c1.51878,0 2.75,0.55964 2.75,1.25c0,0.69036 -1.23122,1.25 -2.75,1.25c-1.51878,0 -2.75,-0.55964 -2.75,-1.25c0,-0.69036 1.23122,-1.25 2.75,-1.25z" data-paper-data="{&quot;index&quot;:null}" fill="#be5524" stroke="none" stroke-width="0" stroke-linecap="butt"/><path d="M295.79165,162.53937c3.59556,-5.48053 15.41424,-5.76688 28.05915,3.44561c2.395,1.74489 7.48649,8.8416 9.7757,10.80061c5.01735,4.29365 9.88887,9.48578 12.23024,12.47165c2.23054,2.84451 2.08654,3.52991 0.66459,5.69731c-1.10367,1.68225 -2.2424,2.40247 -4.4376,2.40341c-3.34444,0.00143 -8.2305,-2.20218 -14.2338,-4.99641c-2.89354,-1.3468 -10.12913,-2.08779 -12.97932,-4.16431c-12.64491,-9.21249 -22.67453,-20.17734 -19.07897,-25.65787z" data-paper-data="{&quot;index&quot;:null}" fill="#c76436" stroke="none" stroke-width="0" stroke-linecap="butt"/><path d="M300.87501,158.45509c0,-4.80265 2.59555,-11.81759 5.79731,-11.81759c3.20176,0 5.79731,7.01494 5.79731,11.81759c0,4.80265 -2.59554,4.68245 -5.79731,4.68245c-3.20176,0 -5.79731,0.1202 -5.79731,-4.68245z" data-paper-data="{&quot;index&quot;:null}" fill="#c76436" stroke="none" stroke-width="0" stroke-linecap="butt"/><path d="M312.375,185.6375c0,0 -5.67778,-6.26708 -7.58515,-9.7286c-2.45361,-4.45285 -3.91485,-15.7714 -3.91485,-15.7714" data-paper-data="{&quot;index&quot;:null}" fill="none" stroke="#9e4b24" stroke-width="0.5" stroke-linecap="round"/><path d="M320.86618,174.85574c1.57221,1.04966 3.30137,3.4325 2.6016,4.48064c-0.69977,1.04814 -3.56347,0.36466 -5.13568,-0.68499c-1.57221,-1.04966 -3.34059,-3.37306 -2.64082,-4.4212c0.69977,-1.04814 3.60269,-0.4241 5.1749,0.62556z" data-paper-data="{&quot;index&quot;:null}" fill="#ac562e" stroke="none" stroke-width="0" stroke-linecap="butt"/><path d="M319.50728,178.88266c-1.20812,0 -2.1875,-0.97938 -2.1875,-2.1875c0,-1.20812 0.97938,-2.1875 2.1875,-2.1875c1.20812,0 2.1875,0.97938 2.1875,2.1875c0,1.20812 -0.97938,2.1875 -2.1875,2.1875z" data-paper-data="{&quot;index&quot;:null}" fill="#000000" stroke="none" stroke-width="0" stroke-linecap="butt"/><path d="M320.56978,176.50766c-0.31066,0 -0.5625,-0.25184 -0.5625,-0.5625c0,-0.31066 0.25184,-0.5625 0.5625,-0.5625c0.31066,0 0.5625,0.25184 0.5625,0.5625c0,0.31066 -0.25184,0.5625 -0.5625,0.5625z" data-paper-data="{&quot;index&quot;:null}" fill="#ffffff" stroke="none" stroke-width="0" stroke-linecap="butt"/><path d="M291.625,181.0125c0,-0.75939 0.95139,-1.375 2.125,-1.375c1.17361,0 2.125,0.61561 2.125,1.375c0,0.75939 -0.95139,1.375 -2.125,1.375c-1.17361,0 -2.125,-0.61561 -2.125,-1.375z" data-paper-data="{&quot;index&quot;:null}" fill="#be5524" stroke="none" stroke-width="0" stroke-linecap="butt"/><path d="M281.75,188.3875c1.44975,0 2.625,0.61561 2.625,1.375c0,0.75939 -1.17525,1.375 -2.625,1.375c-1.44975,0 -2.625,-0.61561 -2.625,-1.375c0,-0.75939 1.17525,-1.375 2.625,-1.375z" data-paper-data="{&quot;index&quot;:null}" fill="#be5524" stroke="none" stroke-width="0" stroke-linecap="butt"/><path d="M283.875,163.2625c0,-0.89746 0.95139,-1.625 2.125,-1.625c1.17361,0 2.125,0.72754 2.125,1.625c0,0.89746 -0.95139,1.625 -2.125,1.625c-1.17361,0 -2.125,-0.72754 -2.125,-1.625z" data-paper-data="{&quot;index&quot;:null}" fill="#be5524" stroke="none" stroke-width="0" stroke-linecap="butt"/><path d="M216.375,194.8875c0,-0.55228 1.11929,-1 2.5,-1c1.38071,0 2.5,0.44772 2.5,1c0,0.55228 -1.11929,1 -2.5,1c-1.38071,0 -2.5,-0.44772 -2.5,-1z" data-paper-data="{&quot;index&quot;:null}" fill="#be5524" stroke="none" stroke-width="0" stroke-linecap="butt"/><path d="M217.125,164.1375c0,-0.41421 0.95139,-0.75 2.125,-0.75c1.17361,0 2.125,0.33579 2.125,0.75c0,0.41421 -0.95139,0.75 -2.125,0.75c-1.17361,0 -2.125,-0.33579 -2.125,-0.75z" data-paper-data="{&quot;index&quot;:null}" fill="#be5524" stroke="none" stroke-width="0" stroke-linecap="butt"/><path d="M216.875,176.2625c0,-0.75939 0.72754,-1.375 1.625,-1.375c0.89746,0 1.625,0.61561 1.625,1.375c0,0.75939 -0.72754,1.375 -1.625,1.375c-0.89746,0 -1.625,-0.61561 -1.625,-1.375z" data-paper-data="{&quot;index&quot;:null}" fill="#be5524" stroke="none" stroke-width="0" stroke-linecap="butt"/><path d="M270.125,193.8875c0,-0.69036 1.28718,-1.25 2.875,-1.25c1.58782,0 2.875,0.55964 2.875,1.25c0,0.69036 -1.28718,1.25 -2.875,1.25c-1.58782,0 -2.875,-0.55964 -2.875,-1.25z" data-paper-data="{&quot;index&quot;:null}" fill="#be5524" stroke="none" stroke-width="0" stroke-linecap="butt"/><path d="M320.50001,166.3875c0.89746,0 1.625,0.44772 1.625,1c0,0.55228 -0.72754,1 -1.625,1c-0.89746,0 -1.625,-0.44772 -1.625,-1c0,-0.55228 0.72754,-1 1.625,-1z" data-paper-data="{&quot;index&quot;:null}" fill="#be5524" stroke="none" stroke-width="0" stroke-linecap="butt"/><path d="M308.125,171.5125c0,-0.48325 0.95139,-0.875 2.125,-0.875c1.17361,0 2.125,0.39175 2.125,0.875c0,0.48325 -0.95139,0.875 -2.125,0.875c-1.17361,0 -2.125,-0.39175 -2.125,-0.875z" data-paper-data="{&quot;index&quot;:null}" fill="#be5524" stroke="none" stroke-width="0" stroke-linecap="butt"/><path d="M311.12501,165.7625c0,-0.34518 0.67157,-0.625 1.5,-0.625c0.82843,0 1.5,0.27982 1.5,0.625c0,0.34518 -0.67157,0.625 -1.5,0.625c-0.82843,0 -1.5,-0.27982 -1.5,-0.625z" data-paper-data="{&quot;index&quot;:null}" fill="#be5524" stroke="none" stroke-width="0" stroke-linecap="butt"/><path d="M317.62501,185.2625c0,-0.48325 1.00736,-0.875 2.25,-0.875c1.24264,0 2.25,0.39175 2.25,0.875c0,0.48325 -1.00736,0.875 -2.25,0.875c-1.24264,0 -2.25,-0.39175 -2.25,-0.875z" data-paper-data="{&quot;index&quot;:null}" fill="#be5524" stroke="none" stroke-width="0" stroke-linecap="butt"/><path d="M329.62501,179.6375c0,-0.69036 0.89543,-1.25 2,-1.25c1.10457,0 2,0.55964 2,1.25c0,0.69036 -0.89543,1.25 -2,1.25c-1.10457,0 -2,-0.55964 -2,-1.25z" data-paper-data="{&quot;index&quot;:null}" fill="#be5524" stroke="none" stroke-width="0" stroke-linecap="butt"/><path d="M331.12501,189.6375c0,-0.55228 1.17525,-1 2.625,-1c1.44975,0 2.625,0.44772 2.625,1c0,0.55228 -1.17525,1 -2.625,1c-1.44975,0 -2.625,-0.44772 -2.625,-1z" data-paper-data="{&quot;index&quot;:null}" fill="#be5524" stroke="none" stroke-width="0" stroke-linecap="butt"/><path d="M338.87501,187.6375c0,-0.55228 0.89543,-1 2,-1c1.10457,0 2,0.44772 2,1c0,0.55228 -0.89543,1 -2,1c-1.10457,0 -2,-0.44772 -2,-1z" data-paper-data="{&quot;index&quot;:null}" fill="#be5524" stroke="none" stroke-width="0" stroke-linecap="butt"/><path d="M344.87501,192.5125c0,-0.62132 0.75368,-1.625 1.375,-1.625c0.62132,0 1.375,0.75368 1.375,1.375c0,0.62132 -0.50368,2.125 -1.125,2.125c-0.62132,0 -1.625,-1.25368 -1.625,-1.875z" data-paper-data="{&quot;index&quot;:null}" fill="#efae8a" stroke="none" stroke-width="0" stroke-linecap="butt"/><path d="M344.62501,192.3875c0,0 -3.6257,-3.13852 -6.33313,-4.87002c-1.83663,-1.17459 -5.86692,-1.27245 -8.86021,-3.18676c-3.47133,-2.22004 -6.30666,-5.69322 -6.30666,-5.69322" data-paper-data="{&quot;index&quot;:null}" fill="none" stroke="#ac562e" stroke-width="0.5" stroke-linecap="round"/></g></g></svg>